<mxfile host="www.draw.io" modified="2020-01-06T01:45:07.182Z" agent="Mozilla/5.0 (X11; Linux x86_64) AppleWebKit/537.36 (KHTML, like Gecko) Chrome/79.0.3945.88 Safari/537.36" etag="5ZllMzhbr_RMzR4uaI6g" version="12.4.8" type="github">
  <diagram id="LfkPOxBhQ7w1o_5h23wY" name="Page-1">
    <mxGraphModel dx="1422" dy="738" grid="1" gridSize="10" guides="1" tooltips="1" connect="1" arrows="1" fold="1" page="1" pageScale="1" pageWidth="1169" pageHeight="827" math="0" shadow="0">
      <root>
        <mxCell id="0"/>
        <mxCell id="1" parent="0"/>
        <mxCell id="ZiM7aAGMJ0RAAH8m6erD-7" value="UTENTE" style="whiteSpace=wrap;html=1;align=center;rounded=0;shadow=0;glass=0;comic=0;verticalAlign=middle;horizontal=1;fontStyle=1" vertex="1" parent="1">
          <mxGeometry x="80" y="99" width="120" height="40" as="geometry"/>
        </mxCell>
        <mxCell id="ZiM7aAGMJ0RAAH8m6erD-24" value="UTENTE" style="whiteSpace=wrap;html=1;align=center;rounded=0;shadow=0;glass=0;comic=0;" vertex="1" parent="1">
          <mxGeometry x="20" y="320" width="100" height="40" as="geometry"/>
        </mxCell>
        <mxCell id="ZiM7aAGMJ0RAAH8m6erD-47" value="" style="edgeStyle=none;orthogonalLoop=1;jettySize=auto;html=1;startArrow=none;startFill=0;endArrow=none;endFill=0;endSize=6;fontSize=12;align=center;verticalAlign=middle;horizontal=1;" edge="1" parent="1" source="ZiM7aAGMJ0RAAH8m6erD-8" target="ZiM7aAGMJ0RAAH8m6erD-43">
          <mxGeometry relative="1" as="geometry"/>
        </mxCell>
        <mxCell id="ZiM7aAGMJ0RAAH8m6erD-8" value="RICETTA" style="whiteSpace=wrap;html=1;align=center;verticalAlign=middle;horizontal=1;fontStyle=1" vertex="1" parent="1">
          <mxGeometry x="760" y="96.5" width="120" height="41" as="geometry"/>
        </mxCell>
        <mxCell id="ZiM7aAGMJ0RAAH8m6erD-71" style="edgeStyle=none;orthogonalLoop=1;jettySize=auto;html=1;entryX=0.5;entryY=1;entryDx=0;entryDy=0;startArrow=none;startFill=0;endArrow=none;endFill=0;endSize=6;fontSize=12;align=center;" edge="1" parent="1" source="ZiM7aAGMJ0RAAH8m6erD-9" target="ZiM7aAGMJ0RAAH8m6erD-40">
          <mxGeometry relative="1" as="geometry"/>
        </mxCell>
        <mxCell id="ZiM7aAGMJ0RAAH8m6erD-72" style="edgeStyle=none;orthogonalLoop=1;jettySize=auto;html=1;startArrow=none;startFill=0;endArrow=oval;endFill=1;endSize=6;fontSize=12;align=center;" edge="1" parent="1" source="ZiM7aAGMJ0RAAH8m6erD-9" target="ZiM7aAGMJ0RAAH8m6erD-73">
          <mxGeometry relative="1" as="geometry">
            <mxPoint x="560" y="340" as="targetPoint"/>
          </mxGeometry>
        </mxCell>
        <mxCell id="ZiM7aAGMJ0RAAH8m6erD-9" value="INGREDIENTE" style="whiteSpace=wrap;html=1;align=center;fontStyle=1" vertex="1" parent="1">
          <mxGeometry x="430" y="320" width="100" height="40" as="geometry"/>
        </mxCell>
        <mxCell id="ZiM7aAGMJ0RAAH8m6erD-10" value="COMMENTO" style="whiteSpace=wrap;html=1;align=center;" vertex="1" parent="1">
          <mxGeometry x="20" y="620" width="100" height="40" as="geometry"/>
        </mxCell>
        <mxCell id="ZiM7aAGMJ0RAAH8m6erD-31" value="" style="fontSize=12;html=1;endArrow=oval;endFill=0;exitX=0.75;exitY=0;exitDx=0;exitDy=0;entryX=0.5;entryY=1.154;entryDx=0;entryDy=0;entryPerimeter=0;align=center;verticalAlign=middle;horizontal=1;" edge="1" parent="1" source="ZiM7aAGMJ0RAAH8m6erD-7" target="ZiM7aAGMJ0RAAH8m6erD-39">
          <mxGeometry width="100" height="100" relative="1" as="geometry">
            <mxPoint x="150" y="79" as="sourcePoint"/>
            <mxPoint x="185" y="69" as="targetPoint"/>
          </mxGeometry>
        </mxCell>
        <mxCell id="ZiM7aAGMJ0RAAH8m6erD-33" value="" style="fontSize=12;html=1;endArrow=oval;endFill=0;exitX=0.5;exitY=0;exitDx=0;exitDy=0;entryX=0.5;entryY=1;entryDx=0;entryDy=0;entryPerimeter=0;align=center;verticalAlign=middle;horizontal=1;" edge="1" parent="1" source="ZiM7aAGMJ0RAAH8m6erD-7" target="ZiM7aAGMJ0RAAH8m6erD-38">
          <mxGeometry width="100" height="100" relative="1" as="geometry">
            <mxPoint x="160" y="109" as="sourcePoint"/>
            <mxPoint x="160" y="69" as="targetPoint"/>
          </mxGeometry>
        </mxCell>
        <mxCell id="ZiM7aAGMJ0RAAH8m6erD-34" value="" style="fontSize=12;html=1;endArrow=oval;endFill=1;exitX=0.25;exitY=0;exitDx=0;exitDy=0;startArrow=none;startFill=0;entryX=0.5;entryY=1.077;entryDx=0;entryDy=0;entryPerimeter=0;align=center;verticalAlign=middle;horizontal=1;" edge="1" parent="1" source="ZiM7aAGMJ0RAAH8m6erD-7" target="ZiM7aAGMJ0RAAH8m6erD-37">
          <mxGeometry width="100" height="100" relative="1" as="geometry">
            <mxPoint x="130" y="109" as="sourcePoint"/>
            <mxPoint x="68" y="89" as="targetPoint"/>
          </mxGeometry>
        </mxCell>
        <mxCell id="ZiM7aAGMJ0RAAH8m6erD-37" value="Nome Utente" style="text;strokeColor=none;fillColor=none;spacingLeft=4;spacingRight=4;overflow=hidden;rotatable=0;points=[[0,0.5],[1,0.5]];portConstraint=eastwest;fontSize=12;align=center;verticalAlign=middle;horizontal=1;" vertex="1" parent="1">
          <mxGeometry x="35" y="49" width="80" height="26" as="geometry"/>
        </mxCell>
        <mxCell id="ZiM7aAGMJ0RAAH8m6erD-38" value="Password" style="text;strokeColor=none;fillColor=none;spacingLeft=4;spacingRight=4;overflow=hidden;rotatable=0;points=[[0,0.5],[1,0.5]];portConstraint=eastwest;fontSize=12;align=center;verticalAlign=middle;horizontal=1;" vertex="1" parent="1">
          <mxGeometry x="115" y="23" width="70" height="26" as="geometry"/>
        </mxCell>
        <mxCell id="ZiM7aAGMJ0RAAH8m6erD-39" value="Email" style="text;strokeColor=none;fillColor=none;spacingLeft=4;spacingRight=4;overflow=hidden;rotatable=0;points=[[0,0.5],[1,0.5]];portConstraint=eastwest;fontSize=12;align=center;verticalAlign=middle;horizontal=1;" vertex="1" parent="1">
          <mxGeometry x="200" y="49" width="40" height="26" as="geometry"/>
        </mxCell>
        <mxCell id="ZiM7aAGMJ0RAAH8m6erD-70" style="edgeStyle=none;orthogonalLoop=1;jettySize=auto;html=1;entryX=0;entryY=1;entryDx=0;entryDy=0;startArrow=none;startFill=0;endArrow=none;endFill=0;endSize=6;fontSize=12;align=center;exitX=1;exitY=0.5;exitDx=0;exitDy=0;" edge="1" parent="1" source="ZiM7aAGMJ0RAAH8m6erD-40" target="ZiM7aAGMJ0RAAH8m6erD-8">
          <mxGeometry relative="1" as="geometry"/>
        </mxCell>
        <mxCell id="ZiM7aAGMJ0RAAH8m6erD-74" style="edgeStyle=none;orthogonalLoop=1;jettySize=auto;html=1;exitX=0;exitY=0;exitDx=0;exitDy=0;startArrow=none;startFill=0;endArrow=oval;endFill=0;endSize=6;fontSize=12;align=center;" edge="1" parent="1" source="ZiM7aAGMJ0RAAH8m6erD-40" target="ZiM7aAGMJ0RAAH8m6erD-76">
          <mxGeometry relative="1" as="geometry">
            <mxPoint x="430" y="180" as="targetPoint"/>
          </mxGeometry>
        </mxCell>
        <mxCell id="ZiM7aAGMJ0RAAH8m6erD-75" style="edgeStyle=none;orthogonalLoop=1;jettySize=auto;html=1;exitX=0;exitY=1;exitDx=0;exitDy=0;startArrow=none;startFill=0;endArrow=oval;endFill=0;endSize=6;fontSize=12;align=center;" edge="1" parent="1" source="ZiM7aAGMJ0RAAH8m6erD-40" target="ZiM7aAGMJ0RAAH8m6erD-77">
          <mxGeometry relative="1" as="geometry">
            <mxPoint x="430" y="260" as="targetPoint"/>
          </mxGeometry>
        </mxCell>
        <mxCell id="ZiM7aAGMJ0RAAH8m6erD-40" value="CONTIENE" style="shape=rhombus;perimeter=rhombusPerimeter;whiteSpace=wrap;html=1;align=center;rounded=0;shadow=0;glass=0;comic=0;fontSize=12;fontStyle=1" vertex="1" parent="1">
          <mxGeometry x="420" y="190" width="120" height="60" as="geometry"/>
        </mxCell>
        <mxCell id="ZiM7aAGMJ0RAAH8m6erD-46" value="" style="edgeStyle=none;orthogonalLoop=1;jettySize=auto;html=1;startArrow=none;startFill=0;endArrow=none;endFill=0;endSize=6;fontSize=12;align=left;verticalAlign=middle;horizontal=1;labelPosition=right;verticalLabelPosition=middle;" edge="1" parent="1" source="ZiM7aAGMJ0RAAH8m6erD-43" target="ZiM7aAGMJ0RAAH8m6erD-7">
          <mxGeometry relative="1" as="geometry"/>
        </mxCell>
        <mxCell id="ZiM7aAGMJ0RAAH8m6erD-43" value="PUBBLICA" style="shape=rhombus;perimeter=rhombusPerimeter;whiteSpace=wrap;html=1;align=center;rounded=0;shadow=0;glass=0;comic=0;fontSize=12;verticalAlign=middle;horizontal=1;fontStyle=1" vertex="1" parent="1">
          <mxGeometry x="420" y="89" width="120" height="60" as="geometry"/>
        </mxCell>
        <mxCell id="ZiM7aAGMJ0RAAH8m6erD-48" value="" style="fontSize=12;html=1;endArrow=oval;endFill=0;exitX=0.5;exitY=0;exitDx=0;exitDy=0;align=center;verticalAlign=middle;horizontal=1;" edge="1" parent="1" source="ZiM7aAGMJ0RAAH8m6erD-8" target="ZiM7aAGMJ0RAAH8m6erD-54">
          <mxGeometry width="100" height="100" relative="1" as="geometry">
            <mxPoint x="465" y="106.5" as="sourcePoint"/>
            <mxPoint x="810" y="47.5" as="targetPoint"/>
          </mxGeometry>
        </mxCell>
        <mxCell id="ZiM7aAGMJ0RAAH8m6erD-49" value="" style="fontSize=12;html=1;endArrow=oval;endFill=0;exitX=0.25;exitY=0;exitDx=0;exitDy=0;align=center;verticalAlign=middle;horizontal=1;" edge="1" parent="1" source="ZiM7aAGMJ0RAAH8m6erD-8" target="ZiM7aAGMJ0RAAH8m6erD-53">
          <mxGeometry width="100" height="100" relative="1" as="geometry">
            <mxPoint x="475" y="116.5" as="sourcePoint"/>
            <mxPoint x="740" y="47.5" as="targetPoint"/>
          </mxGeometry>
        </mxCell>
        <mxCell id="ZiM7aAGMJ0RAAH8m6erD-50" value="" style="fontSize=12;html=1;endArrow=oval;endFill=0;exitX=0.75;exitY=0;exitDx=0;exitDy=0;align=center;verticalAlign=middle;horizontal=1;" edge="1" parent="1" source="ZiM7aAGMJ0RAAH8m6erD-8" target="ZiM7aAGMJ0RAAH8m6erD-55">
          <mxGeometry width="100" height="100" relative="1" as="geometry">
            <mxPoint x="840" y="96.5" as="sourcePoint"/>
            <mxPoint x="840" y="47.5" as="targetPoint"/>
          </mxGeometry>
        </mxCell>
        <mxCell id="ZiM7aAGMJ0RAAH8m6erD-53" value="Titolo" style="text;strokeColor=none;fillColor=none;spacingLeft=4;spacingRight=4;overflow=hidden;rotatable=0;points=[[0,0.5],[1,0.5]];portConstraint=eastwest;fontSize=12;align=center;verticalAlign=middle;horizontal=1;" vertex="1" parent="1">
          <mxGeometry x="730" y="34.5" width="40" height="26" as="geometry"/>
        </mxCell>
        <mxCell id="ZiM7aAGMJ0RAAH8m6erD-54" value="Descrizione" style="text;strokeColor=none;fillColor=none;spacingLeft=4;spacingRight=4;overflow=hidden;rotatable=0;points=[[0,0.5],[1,0.5]];portConstraint=eastwest;fontSize=12;align=center;verticalAlign=middle;horizontal=1;" vertex="1" parent="1">
          <mxGeometry x="785" y="46.5" width="70" height="26" as="geometry"/>
        </mxCell>
        <mxCell id="ZiM7aAGMJ0RAAH8m6erD-55" value="Foto copertina" style="text;strokeColor=none;fillColor=none;spacingLeft=4;spacingRight=4;overflow=hidden;rotatable=0;points=[[0,0.5],[1,0.5]];portConstraint=eastwest;fontSize=12;align=center;verticalAlign=middle;horizontal=1;" vertex="1" parent="1">
          <mxGeometry x="845" y="34.5" width="90" height="26" as="geometry"/>
        </mxCell>
        <mxCell id="ZiM7aAGMJ0RAAH8m6erD-56" value="" style="fontSize=12;html=1;endArrow=oval;endFill=0;exitX=0.5;exitY=1;exitDx=0;exitDy=0;align=center;verticalAlign=middle;horizontal=1;" edge="1" parent="1" target="ZiM7aAGMJ0RAAH8m6erD-57" source="ZiM7aAGMJ0RAAH8m6erD-8">
          <mxGeometry width="100" height="100" relative="1" as="geometry">
            <mxPoint x="845" y="106.5" as="sourcePoint"/>
            <mxPoint x="850" y="57.5" as="targetPoint"/>
          </mxGeometry>
        </mxCell>
        <mxCell id="ZiM7aAGMJ0RAAH8m6erD-57" value="Costo" style="text;strokeColor=none;fillColor=none;spacingLeft=4;spacingRight=4;overflow=hidden;rotatable=0;points=[[0,0.5],[1,0.5]];portConstraint=eastwest;fontSize=12;align=center;verticalAlign=middle;horizontal=1;" vertex="1" parent="1">
          <mxGeometry x="800" y="177.5" width="40" height="26" as="geometry"/>
        </mxCell>
        <mxCell id="ZiM7aAGMJ0RAAH8m6erD-58" value="" style="fontSize=12;html=1;endArrow=oval;endFill=0;exitX=1;exitY=1;exitDx=0;exitDy=0;align=center;verticalAlign=middle;horizontal=1;" edge="1" parent="1" target="ZiM7aAGMJ0RAAH8m6erD-59" source="ZiM7aAGMJ0RAAH8m6erD-8">
          <mxGeometry width="100" height="100" relative="1" as="geometry">
            <mxPoint x="955" y="136.5" as="sourcePoint"/>
            <mxPoint x="960" y="87.5" as="targetPoint"/>
          </mxGeometry>
        </mxCell>
        <mxCell id="ZiM7aAGMJ0RAAH8m6erD-59" value="Difficoltà" style="text;strokeColor=none;fillColor=none;spacingLeft=4;spacingRight=4;overflow=hidden;rotatable=0;points=[[0,0.5],[1,0.5]];portConstraint=eastwest;fontSize=12;align=center;verticalAlign=middle;horizontal=1;" vertex="1" parent="1">
          <mxGeometry x="915" y="146.5" width="60" height="26" as="geometry"/>
        </mxCell>
        <mxCell id="ZiM7aAGMJ0RAAH8m6erD-60" value="" style="fontSize=12;html=1;endArrow=oval;endFill=0;exitX=0.25;exitY=1;exitDx=0;exitDy=0;align=center;verticalAlign=middle;horizontal=1;" edge="1" parent="1" target="ZiM7aAGMJ0RAAH8m6erD-61" source="ZiM7aAGMJ0RAAH8m6erD-8">
          <mxGeometry width="100" height="100" relative="1" as="geometry">
            <mxPoint x="755" y="219.5" as="sourcePoint"/>
            <mxPoint x="760" y="170.5" as="targetPoint"/>
          </mxGeometry>
        </mxCell>
        <mxCell id="ZiM7aAGMJ0RAAH8m6erD-61" value="Dosi" style="text;strokeColor=none;fillColor=none;spacingLeft=4;spacingRight=4;overflow=hidden;rotatable=0;points=[[0,0.5],[1,0.5]];portConstraint=eastwest;fontSize=12;align=center;verticalAlign=middle;horizontal=1;" vertex="1" parent="1">
          <mxGeometry x="730" y="177.5" width="40" height="26" as="geometry"/>
        </mxCell>
        <mxCell id="ZiM7aAGMJ0RAAH8m6erD-62" value="" style="fontSize=12;html=1;endArrow=oval;endFill=0;exitX=1;exitY=0;exitDx=0;exitDy=0;align=center;verticalAlign=middle;horizontal=1;" edge="1" parent="1" target="ZiM7aAGMJ0RAAH8m6erD-63" source="ZiM7aAGMJ0RAAH8m6erD-8">
          <mxGeometry width="100" height="100" relative="1" as="geometry">
            <mxPoint x="875" y="136.5" as="sourcePoint"/>
            <mxPoint x="880" y="87.5" as="targetPoint"/>
          </mxGeometry>
        </mxCell>
        <mxCell id="ZiM7aAGMJ0RAAH8m6erD-63" value="Preparazione" style="text;strokeColor=none;fillColor=none;spacingLeft=4;spacingRight=4;overflow=hidden;rotatable=0;points=[[0,0.5],[1,0.5]];portConstraint=eastwest;fontSize=12;align=center;verticalAlign=middle;horizontal=1;" vertex="1" parent="1">
          <mxGeometry x="915" y="60.5" width="80" height="26" as="geometry"/>
        </mxCell>
        <mxCell id="ZiM7aAGMJ0RAAH8m6erD-66" value="" style="fontSize=12;html=1;endArrow=oval;endFill=0;exitX=1;exitY=0.5;exitDx=0;exitDy=0;align=center;verticalAlign=middle;horizontal=1;" edge="1" parent="1" target="ZiM7aAGMJ0RAAH8m6erD-67" source="ZiM7aAGMJ0RAAH8m6erD-8">
          <mxGeometry width="100" height="100" relative="1" as="geometry">
            <mxPoint x="895" y="156.5" as="sourcePoint"/>
            <mxPoint x="900" y="107.5" as="targetPoint"/>
          </mxGeometry>
        </mxCell>
        <mxCell id="ZiM7aAGMJ0RAAH8m6erD-67" value="Cottura" style="text;strokeColor=none;fillColor=none;spacingLeft=4;spacingRight=4;overflow=hidden;rotatable=0;points=[[0,0.5],[1,0.5]];portConstraint=eastwest;fontSize=12;align=center;verticalAlign=middle;horizontal=1;" vertex="1" parent="1">
          <mxGeometry x="915" y="103.5" width="50" height="26" as="geometry"/>
        </mxCell>
        <mxCell id="ZiM7aAGMJ0RAAH8m6erD-68" value="" style="fontSize=12;html=1;endArrow=oval;endFill=0;exitX=0.75;exitY=1;exitDx=0;exitDy=0;" edge="1" parent="1" target="ZiM7aAGMJ0RAAH8m6erD-69" source="ZiM7aAGMJ0RAAH8m6erD-8">
          <mxGeometry width="100" height="100" relative="1" as="geometry">
            <mxPoint x="905" y="166.5" as="sourcePoint"/>
            <mxPoint x="910" y="117.5" as="targetPoint"/>
          </mxGeometry>
        </mxCell>
        <mxCell id="ZiM7aAGMJ0RAAH8m6erD-69" value="Portata" style="text;strokeColor=none;fillColor=none;spacingLeft=4;spacingRight=4;overflow=hidden;rotatable=0;points=[[0,0.5],[1,0.5]];portConstraint=eastwest;fontSize=12;align=center;" vertex="1" parent="1">
          <mxGeometry x="865" y="177.5" width="50" height="26" as="geometry"/>
        </mxCell>
        <mxCell id="ZiM7aAGMJ0RAAH8m6erD-73" value="Nome" style="text;strokeColor=none;fillColor=none;spacingLeft=4;spacingRight=4;overflow=hidden;rotatable=0;points=[[0,0.5],[1,0.5]];portConstraint=eastwest;fontSize=12;align=center;" vertex="1" parent="1">
          <mxGeometry x="560" y="327" width="50" height="26" as="geometry"/>
        </mxCell>
        <mxCell id="ZiM7aAGMJ0RAAH8m6erD-76" value="Quantità" style="text;strokeColor=none;fillColor=none;spacingLeft=4;spacingRight=4;overflow=hidden;rotatable=0;points=[[0,0.5],[1,0.5]];portConstraint=eastwest;fontSize=12;align=center;" vertex="1" parent="1">
          <mxGeometry x="360" y="164" width="60" height="26" as="geometry"/>
        </mxCell>
        <mxCell id="ZiM7aAGMJ0RAAH8m6erD-77" value="Annotazioni" style="text;strokeColor=none;fillColor=none;spacingLeft=4;spacingRight=4;overflow=hidden;rotatable=0;points=[[0,0.5],[1,0.5]];portConstraint=eastwest;fontSize=12;align=center;" vertex="1" parent="1">
          <mxGeometry x="350" y="247" width="80" height="26" as="geometry"/>
        </mxCell>
        <mxCell id="ZiM7aAGMJ0RAAH8m6erD-80" value="(0,N)" style="text;html=1;align=center;verticalAlign=middle;resizable=0;points=[];autosize=1;fontSize=12;labelPosition=center;verticalLabelPosition=middle;" vertex="1" parent="1">
          <mxGeometry x="370" y="89" width="40" height="20" as="geometry"/>
        </mxCell>
      </root>
    </mxGraphModel>
  </diagram>
</mxfile>
